<?xml version="1.0" encoding="utf-8"?>
<!-- Generator: Adobe Illustrator 16.0.0, SVG Export Plug-In . SVG Version: 6.00 Build 0)  -->
<!DOCTYPE svg PUBLIC "-//W3C//DTD SVG 1.1//EN" "http://www.w3.org/Graphics/SVG/1.1/DTD/svg11.dtd">
<svg version="1.1" xmlns="http://www.w3.org/2000/svg" xmlns:xlink="http://www.w3.org/1999/xlink" x="0px" y="0px" width="256px"
	 height="256px" viewBox="0 0 256 256" enable-background="new 0 0 256 256" xml:space="preserve">
<g id="Hintergrund">
	<rect fill="#003C4D" width="256" height="256"/>
</g>
<g id="Ebene_1">
	<g>
		<path fill="#FFFFFF" d="M55,201h104v44H11V127.727C11,98.287,22.764,71.45,40.834,51l30.083,31
			C60.776,94.41,55,110.438,55,127.717V201z"/>
		<path fill="#FFFFFF" d="M127.667,19c29.116,0,56.395,11.055,76.981,31.644c20.587,20.587,32.019,48.243,32.019,77.356
			c0,24.463-7.286,47.124-22,66l-22-21c8.806-12.858,14-28.238,14-45c0-43.561-35.439-79-79-79c-16.636,0-32.94,5.062-46,14l-21-22
			C79.892,26.09,103.24,19,127.667,19L127.667,19z M127.667,12c-26,0-52.314,9.087-72.095,24.777
			c-1.73,1.359-3.256,2.732-4.905,4.223l30,31c12.46-10.329,29.56-16,47-16c39.76,0,72,32.24,72,72c0,17.439-5.67,33.539-16,46
			l31,30c18.25-20.48,29-46.4,29-76C243.667,63.939,190.667,12,127.667,12L127.667,12z"/>
	</g>
</g>
</svg>
